HIERARCHY
ROOT Hips
{
	OFFSET 0.000000 0.000000 0.000000 
	CHANNELS 6 Xposition Yposition Zposition Zrotation Yrotation Xrotation
	JOINT LeftUpLeg
	{
		OFFSET 1.363060 -1.794630 0.839290 
		CHANNELS 3 Zrotation Yrotation Xrotation
		JOINT LeftLeg
		{
			OFFSET 2.448110 -6.726130 0.000000 
			CHANNELS 3 Zrotation Yrotation Xrotation
			JOINT LeftFoot
			{
				OFFSET 2.562200 -7.039590 0.000000 
				CHANNELS 3 Zrotation Yrotation Xrotation
				JOINT LeftToeBase
				{
					OFFSET 0.157640 -0.433110 2.322550 
					CHANNELS 3 Zrotation Yrotation Xrotation
					End Site
					{
						OFFSET 0.000000 0.000000 0.000000 
					}
				}
			}
		}
	}
	JOINT RightUpLeg
	{
		OFFSET -1.305520 -1.794630 0.839290 
		CHANNELS 3 Zrotation Yrotation Xrotation
		JOINT RightLeg
		{
			OFFSET -2.542530 -6.985550 0.000000 
			CHANNELS 3 Zrotation Yrotation Xrotation
			JOINT RightFoot
			{
				OFFSET -2.568260 -7.056230 0.000000 
				CHANNELS 3 Zrotation Yrotation Xrotation
				JOINT RightToeBase
				{
					OFFSET -0.164730 -0.452590 2.363150 
					CHANNELS 3 Zrotation Yrotation Xrotation
					End Site
					{
						OFFSET 0.000000 0.000000 0.000000 
					}
				}
			}
		}
	}
	JOINT Spine
	{
		OFFSET 0.028270 2.035590 -0.193380 
		CHANNELS 3 Zrotation Yrotation Xrotation
		JOINT Spine1
		{
			OFFSET 0.056720 2.048850 -0.042750 
			CHANNELS 3 Zrotation Yrotation Xrotation
			JOINT Neck1
			{
				OFFSET -0.054170 1.746240 0.172020 
				CHANNELS 3 Zrotation Yrotation Xrotation
				JOINT Head
				{
					OFFSET 0.104070 1.761360 -0.123970 
					CHANNELS 3 Zrotation Yrotation Xrotation
					End Site
					{
						OFFSET 0.000000 0.000000 0.000000 
					}
				}
			}
			JOINT LeftArm
			{
				OFFSET 3.362410 1.200890 -0.311210 
				CHANNELS 3 Zrotation Yrotation Xrotation
				JOINT LeftForeArm
				{
					OFFSET 4.983000 -0.000000 -0.000000 
					CHANNELS 3 Zrotation Yrotation Xrotation
					JOINT LeftHand
					{
						OFFSET 3.483560 -0.000000 -0.000000 
						CHANNELS 3 Zrotation Yrotation Xrotation
						JOINT LeftHandIndex1
						{
							OFFSET 0.715260 -0.000000 -0.000000 
							CHANNELS 3 Zrotation Yrotation Xrotation
							End Site
							{
								OFFSET 0.000000 0.000000 0.000000 
							}
						}
					}
				}
			}
			JOINT RightArm
			{
				OFFSET -3.136600 1.374050 -0.404650 
				CHANNELS 3 Zrotation Yrotation Xrotation
				JOINT RightForeArm
				{
					OFFSET -5.241900 -0.000000 -0.000000 
					CHANNELS 3 Zrotation Yrotation Xrotation
					JOINT RightHand
					{
						OFFSET -3.444170 -0.000000 -0.000000 
						CHANNELS 3 Zrotation Yrotation Xrotation
						JOINT RightHandIndex1
						{
							OFFSET -0.622530 -0.000000 -0.000000 
							CHANNELS 3 Zrotation Yrotation Xrotation
							End Site
							{
								OFFSET 0.000000 0.000000 0.000000 
							}
						}
					}
				}
			}
		}
	}
}
MOTION
Frames: 13
Frame Time: 0.041667
11.080845 18.019219 -11.981246 -2.309507 0.206588 5.627270 -18.455830 -14.876170 -11.337851 -1.781330 8.839671 25.040428 -2.195433 9.603437 -7.462009 3.232600 -11.062400 -32.490600 30.480654 15.870480 -4.614385 2.550062 -6.461649 20.160398 4.513919 -21.551411 -13.977267 -0.080900 1.834400 -5.048300 3.585653 0.369123 11.781613 -4.785049 0.293225 -15.186326 14.822735 -4.445537 5.099961 2.701000 -2.153600 2.696200 -87.824323 10.558362 16.581178 24.758935 -24.144047 -5.947541 1.339271 0.812258 9.777701 -7.125000 0.000000 0.000000 85.071176 -11.600218 36.341279 -24.327805 27.020654 -6.716649 0.229477 -0.987254 25.366383 7.125000 0.000000 0.000000 
11.078076 18.009530 -11.985283 -2.210580 0.149534 5.779639 -18.508670 -14.604280 -11.727007 -1.727468 8.946127 25.300054 -2.082892 9.279794 -7.437849 3.201900 -11.015000 -32.330300 30.319183 15.748724 -5.239676 2.447729 -6.721796 20.791459 4.398047 -21.172559 -14.156178 -0.077600 1.797500 -4.946500 3.398240 0.395497 11.923756 -4.719773 0.314831 -15.233675 14.502802 -4.496990 4.927160 2.562800 -2.193600 2.652100 -87.701612 10.984910 16.531235 24.890861 -24.264400 -5.990407 1.338294 0.810936 9.724558 -7.125000 0.000000 0.000000 84.942917 -11.650780 36.381966 -24.200413 26.869433 -6.651734 0.235184 -0.996269 25.385425 7.125000 0.000000 0.000000 
11.074847 17.998918 -11.990359 -2.182093 0.112316 5.919842 -18.509477 -14.395885 -12.166392 -1.659487 9.083360 25.641073 -2.019841 9.109864 -7.495058 3.321400 -11.198000 -32.950500 30.229640 15.689910 -5.793348 2.367774 -6.932710 21.283738 4.328383 -20.946938 -14.235568 -0.082000 1.847300 -5.083900 3.390931 0.345005 12.235321 -4.662835 0.310311 -15.244597 14.273753 -4.438559 4.623573 2.478200 -2.188600 2.579800 -87.578706 11.392239 16.541989 25.090374 -24.455900 -6.057139 1.329114 0.812969 9.564840 -7.125000 0.000000 0.000000 84.750708 -11.539301 36.509943 -24.063213 26.719262 -6.596637 0.249473 -1.001646 25.359022 7.125000 0.000000 0.000000 
11.070694 17.985307 -11.994165 -2.223991 0.127159 6.011462 -18.428593 -14.220228 -12.566204 -1.592171 9.217809 25.975864 -1.965278 8.968248 -7.590715 3.446700 -11.385300 -33.590600 30.268545 15.665643 -6.204278 2.299584 -7.115434 21.723415 4.263073 -20.776832 -14.435255 -0.085800 1.889300 -5.199800 3.281464 0.335675 12.445794 -4.686949 0.304979 -15.274664 14.243298 -4.405196 4.398862 2.463100 -2.189000 2.514800 -87.421582 11.697372 16.362205 25.122189 -24.472901 -6.062002 1.327683 0.818106 9.633470 -7.125000 0.000000 0.000000 84.766733 -11.574597 36.346506 -23.974649 26.625079 -6.564454 0.271872 -1.002357 25.262628 7.125000 0.000000 0.000000 
11.064696 17.974119 -11.996703 -2.278134 0.198076 6.134330 -18.330109 -14.096214 -12.955344 -1.521274 9.359124 26.324698 -1.907088 8.816561 -7.676211 3.511000 -11.479500 -33.914700 30.337871 15.627276 -6.568982 2.246293 -7.267310 22.078393 4.207687 -20.644276 -14.624884 -0.086100 1.892900 -5.209700 3.227527 0.366731 12.386103 -4.724084 0.311976 -15.409542 14.362273 -4.411738 4.357551 2.503900 -2.193200 2.507000 -87.339700 11.878648 15.868034 24.938338 -24.260084 -5.970372 1.348762 0.811720 10.071058 -7.125000 0.000000 0.000000 84.744032 -11.815245 36.214869 -23.947084 26.587632 -6.550227 0.288267 -1.005065 25.083593 7.125000 0.000000 0.000000 
11.058467 17.966275 -12.000625 -2.434593 0.312434 6.296563 -18.115231 -14.062233 -13.350086 -1.448100 9.491372 26.654927 -1.805151 8.526522 -7.721532 3.441200 -11.377200 -33.562700 30.491992 15.546652 -7.011267 2.198272 -7.419181 22.401359 4.170967 -20.561125 -14.669395 -0.081800 1.845100 -5.077600 3.384949 0.362559 12.375373 -4.815355 0.305049 -15.553484 14.772932 -4.280310 4.101444 2.672100 -2.142100 2.450000 -87.326648 12.041556 15.337679 24.860213 -24.174728 -5.911878 1.379579 0.786742 10.475296 -7.125000 0.000000 0.000000 84.600345 -12.063759 36.217377 -24.012930 26.652046 -6.579482 0.287582 -1.007172 24.976795 7.125000 0.000000 0.000000 
11.054892 17.959585 -12.002816 -2.571463 0.366058 6.398413 -17.935342 -13.948718 -13.729656 -1.374540 9.614968 26.973693 -1.699443 8.219064 -7.721066 3.395600 -11.309400 -33.330600 30.624874 15.457641 -7.409656 2.143116 -7.568307 22.744922 4.103740 -20.364452 -14.732837 -0.068600 1.690300 -4.650400 3.446311 0.328375 12.705261 -4.911408 0.286450 -15.565313 15.031588 -4.161800 3.762305 2.778700 -2.104800 2.377700 -87.290553 12.176373 14.984422 24.892805 -24.202815 -5.891017 1.400334 0.764024 10.588885 -7.125000 0.000000 0.000000 84.467576 -12.174143 36.198276 -24.073985 26.712234 -6.605859 0.282869 -1.010599 24.947464 7.125000 0.000000 0.000000 
11.053046 17.951395 -12.004777 -2.547795 0.359242 6.510033 -17.929993 -13.790143 -14.107370 -1.303260 9.747606 27.302780 -1.623895 8.004278 -7.702242 3.366300 -11.265600 -33.181000 30.585281 15.465149 -7.807606 2.078363 -7.730849 23.132935 4.040785 -20.174548 -14.846935 -0.065100 1.645800 -4.527900 3.278921 0.326449 12.864483 -4.915965 0.281437 -15.633495 14.871980 -4.228186 3.632005 2.702900 -2.147700 2.346400 -87.203764 12.403568 14.732143 24.808230 -24.098862 -5.854728 1.407308 0.768405 10.709975 -7.125000 0.000000 0.000000 84.380536 -12.313602 36.209205 -24.047773 26.676022 -6.592630 0.283829 -1.014073 24.807563 7.125000 0.000000 0.000000 
11.048663 17.940091 -12.006507 -2.519147 0.402988 6.648988 -17.913217 -13.695605 -14.473058 -1.229648 9.881988 27.639969 -1.492569 7.638939 -7.783346 3.230800 -11.059700 -32.481400 30.552578 15.527305 -8.251215 1.999561 -7.935728 23.619719 3.995094 -20.077159 -15.058828 -0.067100 1.671000 -4.597300 3.182609 0.333063 12.834803 -4.888503 0.287256 -15.777308 14.772364 -4.265273 3.381252 2.656800 -2.186800 2.254100 -87.106001 12.781304 14.551314 24.719198 -23.992412 -5.836354 1.415062 0.775561 10.813736 -7.125000 0.000000 0.000000 84.310527 -12.552671 36.244122 -23.979806 26.594837 -6.567528 0.287379 -1.016760 24.809144 7.125000 0.000000 0.000000 
11.040935 17.926596 -12.006623 -2.489122 0.461770 6.870337 -17.880463 -13.595652 -14.923310 -1.159486 10.021939 27.975506 -1.375166 7.328713 -7.956562 3.233700 -11.064100 -32.496200 30.513420 15.535082 -8.820756 1.909606 -8.169705 24.166348 3.921316 -19.882948 -15.270782 -0.067100 1.671300 -4.598100 3.124266 0.345207 12.795989 -4.851966 0.308742 -15.808561 14.949481 -4.115294 2.795362 2.734700 -2.159400 2.039000 -87.008169 13.223641 14.491548 24.761025 -24.007632 -5.841995 1.427920 0.767204 10.739637 -7.125000 0.000000 0.000000 84.277748 -12.841887 36.200196 -23.913637 26.507933 -6.541814 0.295520 -1.022181 24.990800 7.125000 0.000000 0.000000 
11.034360 17.911600 -12.010083 -2.435656 0.453833 7.189386 -17.867116 -13.502524 -15.470424 -1.093049 10.176553 28.316916 -1.328522 7.226571 -8.106248 3.349000 -11.239600 -33.092300 30.413159 15.500612 -9.535076 1.817446 -8.412468 24.708954 3.818310 -19.552230 -15.369267 -0.069500 1.700300 -4.678000 2.999879 0.408804 12.614143 -4.826738 0.348263 -15.843948 15.199311 -3.914338 2.269403 2.836000 -2.101600 1.843400 -86.904452 13.661541 14.575188 24.859821 -24.085261 -5.879086 1.418139 0.776877 10.623971 -7.125000 0.000000 0.000000 84.243347 -13.143164 36.216574 -23.873755 26.444820 -6.521174 0.300328 -1.026191 24.812954 7.125000 0.000000 0.000000 
11.029169 17.896951 -12.012621 -2.478445 0.434221 7.401259 -17.790808 -13.352828 -15.962558 -1.023683 10.325665 28.659818 -1.339201 7.280078 -8.186402 3.602700 -11.612100 -34.373100 30.442579 15.524290 -10.102148 1.722300 -8.652507 25.274080 3.720019 -19.284616 -15.597162 -0.061400 1.598800 -4.398200 2.951191 0.469326 12.530956 -4.861773 0.369803 -16.001117 15.309412 -3.862653 2.176518 2.871200 -2.080100 1.830000 -86.824756 13.867305 14.605000 24.764027 -23.890722 -5.705933 1.479760 0.683554 10.915477 -7.125000 0.000000 0.000000 84.176847 -13.405621 36.343019 -23.823425 26.372016 -6.494536 0.293377 -1.029990 24.594437 7.125000 0.000000 0.000000 
11.022594 17.883456 -12.011813 -2.523544 0.429239 7.554978 -17.726017 -13.169411 -16.411691 -0.954517 10.457990 28.981378 -1.318025 7.234724 -8.258932 3.817800 -11.914000 -35.428300 30.475049 15.601795 -10.598983 1.630069 -8.880100 25.818824 3.651980 -19.136187 -15.863176 -0.052100 1.473300 -4.052200 3.024953 0.477342 12.827444 -4.834635 0.385449 -16.066609 15.072951 -3.941601 2.256424 2.776900 -2.108200 1.916800 -86.837283 13.901140 14.228104 24.602484 -23.762092 -5.734747 1.445389 0.763728 11.045603 -7.125000 0.000000 0.000000 84.020361 -13.449366 36.522687 -23.731252 26.267343 -6.457265 0.295684 -1.035868 24.557881 7.125000 0.000000 0.000000 
